<svg width="100" height="100" viewBox="0 0 100 100" fill="none" xmlns="http://www.w3.org/2000/svg">
<path d="M50 100C77.6142 100 100 77.6142 100 50C100 22.3858 77.6142 0 50 0C22.3858 0 0 22.3858 0 50C0 77.6142 22.3858 100 50 100Z" fill="#3B94D9"/>
<path d="M71.013 31.3748C65.1352 31.3748 59.3602 35.047 54.9046 38.9081C56.0196 40.1256 57.0826 41.3897 58.0908 42.697C58.5685 43.3275 59.2658 44.1803 60.1269 45.147C63.5602 42.1359 67.5963 39.4692 71.013 39.4692C76.8185 39.4692 81.5408 44.1914 81.5408 49.997C81.5408 55.8025 76.8185 60.5248 71.013 60.5248C64.5213 60.5248 55.7796 50.9248 53.2296 47.5581C51.9796 45.9025 40.6713 31.3748 28.9824 31.3748C18.713 31.3748 10.3574 39.7303 10.3574 49.9998C10.3574 60.2692 18.713 68.622 28.9824 68.622C34.6908 68.622 40.2963 65.1553 44.6963 61.4164C43.4714 60.0977 42.3081 58.7231 41.2102 57.297C40.6559 56.577 40.0778 55.8757 39.4769 55.1942C36.1324 58.0609 32.2713 60.5248 28.9824 60.5248C23.1769 60.5248 18.4546 55.8025 18.4546 49.997C18.4546 44.1914 23.1769 39.4692 28.9824 39.4692C35.4769 39.4692 44.2158 49.0692 46.7658 52.4359C48.0158 54.0914 59.3241 68.6192 71.013 68.6192C75.9503 68.614 80.684 66.6504 84.1752 63.1592C87.6664 59.668 89.6301 54.9343 89.6352 49.997C89.6308 45.0594 87.6674 40.3253 84.176 36.834C80.6846 33.3426 75.9505 31.3792 71.013 31.3748V31.3748Z" fill="white"/>
</svg>
